<svg xmlns="http://www.w3.org/2000/svg" width="512" height="512" viewBox="0 0 512 512"><defs><linearGradient id="bg" x2="1" y2="1"><stop stop-color="#163046"/><stop offset="1" stop-color="#070b14"/></linearGradient><linearGradient id="water" x2=".8" y2="1"><stop stop-color="#d2ffff"/><stop offset=".5" stop-color="#43e5e8"/><stop offset="1" stop-color="#087dac"/></linearGradient></defs><rect width="512" height="512" rx="108" fill="url(#bg)"/><rect x="43" y="43" width="426" height="426" rx="74" fill="none" stroke="#3a6375" stroke-width="2"/><path d="M93 138h35M93 138v35M419 374h-35M419 374v-35" stroke="#ffbd59" stroke-width="8" fill="none"/><path d="M256 96c-26 54-116 132-116 211a116 116 0 0 0 232 0c0-79-90-157-116-211Z" fill="url(#water)"/><path d="m172 267 167 42-127 48" fill="none" stroke="#0a263b" stroke-width="20" stroke-linecap="round" stroke-linejoin="round"/><path d="m172 260 167 42-127 48" fill="none" stroke="#fff0ce" stroke-width="10" stroke-linecap="round" stroke-linejoin="round"/><path d="M219 196c-17 22-28 40-35 59" stroke="#e4ffff" opacity=".7" fill="none" stroke-width="8" stroke-linecap="round"/></svg>
